<?xml version="1.0" encoding="UTF-8"?>
<svg id="Layer_1" xmlns="http://www.w3.org/2000/svg" xmlns:xlink="http://www.w3.org/1999/xlink" version="1.1" viewBox="0 0 512 512">
  <!-- Generator: Adobe Illustrator 30.3.0, SVG Export Plug-In . SVG Version: 2.1.3 Build 182)  -->
  <defs>
    <style>
      .st0 {
        fill: url(#linear-gradient2);
      }

      .st1 {
        fill: url(#linear-gradient1);
      }

      .st2 {
        fill: url(#linear-gradient3);
      }

      .st3 {
        fill: url(#linear-gradient6);
      }

      .st4 {
        fill: url(#linear-gradient8);
      }

      .st5 {
        fill: url(#linear-gradient7);
      }

      .st6 {
        fill: url(#linear-gradient5);
      }

      .st7 {
        fill: url(#linear-gradient4);
      }

      .st8 {
        fill: url(#linear-gradient);
      }

      .st9 {
        fill: #f6f6f2;
      }
    </style>
    <linearGradient id="linear-gradient" x1="39.95" y1="305.78" x2="294.72" y2="305.78" gradientUnits="userSpaceOnUse">
      <stop offset="0" stop-color="#a9c7b6"/>
      <stop offset="1" stop-color="#e0af49"/>
    </linearGradient>
    <linearGradient id="linear-gradient1" x1="26.79" y1="367.81" x2="319.13" y2="367.81" gradientUnits="userSpaceOnUse">
      <stop offset="0" stop-color="#a9c7b6"/>
      <stop offset="1" stop-color="#e0af49"/>
    </linearGradient>
    <linearGradient id="linear-gradient2" x1="464.39" y1="305.78" x2="719.16" y2="305.78" gradientTransform="translate(936.44) rotate(-180) scale(1 -1)" xlink:href="#linear-gradient"/>
    <linearGradient id="linear-gradient3" x1="451.23" y1="367.81" x2="743.57" y2="367.81" gradientTransform="translate(936.44) rotate(-180) scale(1 -1)" xlink:href="#linear-gradient1"/>
    <linearGradient id="linear-gradient4" x1="321" y1="67" x2="421.92" y2="67" gradientUnits="userSpaceOnUse">
      <stop offset="0" stop-color="#a9c7b6"/>
      <stop offset="1" stop-color="#e0af49"/>
    </linearGradient>
    <linearGradient id="linear-gradient5" x1="-76.88" y1="5.69" x2="435.12" y2="517.69" gradientTransform="translate(1405 -292) scale(16 58)" xlink:href="#linear-gradient4"/>
    <linearGradient id="linear-gradient6" x1="82" y1="297.89" x2="1247.83" y2="297.89" gradientTransform="translate(0 511.89) scale(1 -1)" gradientUnits="userSpaceOnUse">
      <stop offset="0" stop-color="#a9c7b6"/>
      <stop offset=".16" stop-color="#acc5ae"/>
      <stop offset=".39" stop-color="#b7c09a"/>
      <stop offset=".67" stop-color="#c8b978"/>
      <stop offset=".99" stop-color="#dfaf49"/>
      <stop offset="1" stop-color="#e0af49"/>
    </linearGradient>
    <linearGradient id="linear-gradient7" x1="207" y1="145.89" x2="545.53" y2="145.89" gradientTransform="translate(0 511.89) scale(1 -1)" gradientUnits="userSpaceOnUse">
      <stop offset="0" stop-color="#a9c7b6"/>
      <stop offset="1" stop-color="#e0af49"/>
    </linearGradient>
    <linearGradient id="linear-gradient8" x1="170" y1="103.89" x2="662.85" y2="103.89" gradientTransform="translate(0 511.89) scale(1 -1)" gradientUnits="userSpaceOnUse">
      <stop offset="0" stop-color="#a9c7b6"/>
      <stop offset="1" stop-color="#e0af49"/>
    </linearGradient>
  </defs>
  <g>
    <g id="tangan_kanan">
      <path class="st8" d="M67.11,290.63c0-14.18,14.89-13.83,14.89-13.83v-31.03c-27,0-42,20-42,50l-.05,67.08h6.54c6.65,0,19.94,6.65,19.94,0,0,1.19.68-58.04.68-72.22Z"/>
    </g>
    <g id="kanan_kepal">
      <path class="st1" d="M31.38,377.57c-6.6-5.67-5.71-14.84.33-19.86,11.66-9.68,28.87-10.09,41.07-.78,3.22,2.46,6.01,7.62,6.01,11.02,0,2.86-2.62,8.06-5.27,10.16-12.29,9.72-29.88,9.96-42.14-.55h0Z"/>
    </g>
  </g>
  <g>
    <g id="tangan_kanan1" data-name="tangan_kanan">
      <path class="st0" d="M445.57,362.84c0,6.65,13.3,0,19.94,0h6.54s-.05-67.08-.05-67.08c0-30-15-50-42-50v31.03s14.89-.35,14.89,13.83.68,73.41.68,72.22Z"/>
    </g>
    <g id="kanan_kepal1" data-name="kanan_kepal">
      <path class="st2" d="M480.61,377.56c-12.25,10.51-29.85,10.27-42.14.55-2.65-2.1-5.26-7.3-5.27-10.16,0-3.4,2.8-8.56,6.01-11.02,12.2-9.32,29.41-8.9,41.07.78,6.04,5.01,6.93,14.19.33,19.86h0Z"/>
    </g>
  </g>
  <g id="telinga_kanan">
    <path class="st7" d="M329,38h0c4.42,0,8,3.58,8,8v42c0,4.42-3.58,8-8,8h0c-4.42,0-8-3.58-8-8v-42c0-4.42,3.58-8,8-8Z"/>
  </g>
  <g id="telinga_kiri">
    <path class="st6" d="M183,38h0c4.42,0,8,3.58,8,8v42c0,4.42-3.58,8-8,8h0c-4.42,0-8-3.58-8-8v-42c0-4.42,3.58-8,8-8Z"/>
  </g>
  <g id="compute">
    <rect class="st3" x="82" y="88" width="348" height="252" rx="38" ry="38"/>
    <g>
      <path class="st5" d="M220,340h72l13,52h-98l13-52Z"/>
      <path class="st4" d="M186,392h140c8.84,0,16,7.16,16,16h0c0,8.84-7.16,16-16,16h-140c-8.84,0-16-7.16-16-16h0c0-8.84,7.16-16,16-16Z"/>
    </g>
  </g>
  <g id="layar">
    <rect class="st9" x="112" y="118" width="288" height="192" rx="26" ry="26"/>
  </g>
  <g id="mata">
    <rect x="279.89" y="174.53" width="41.54" height="16.84" rx="8.42" ry="8.42"/>
    <rect x="190.58" y="174.53" width="41.54" height="16.84" rx="8.42" ry="8.42"/>
  </g>
</svg>